HIERARCHY
ROOT Hips
{
	OFFSET 0.00000 0.00000 0.00000
	CHANNELS 6 Xposition Yposition Zposition Zrotation Yrotation Xrotation 
	JOINT LHipJoint
	{
		OFFSET 0 0 0
		CHANNELS 3 Zrotation Yrotation Xrotation
		JOINT LeftUpLeg
		{
			OFFSET 1.54859 -1.61379 0.86856
			CHANNELS 3 Zrotation Yrotation Xrotation
			JOINT LeftLeg
			{
				OFFSET 2.25087 -6.18423 0.00000
				CHANNELS 3 Zrotation Yrotation Xrotation
				JOINT LeftFoot
				{
					OFFSET 2.40328 -6.60297 0.00000
					CHANNELS 3 Zrotation Yrotation Xrotation
					JOINT LeftToeBase
					{
						OFFSET 0.17435 -0.47901 2.02453
						CHANNELS 3 Zrotation Yrotation Xrotation
						End Site
						{
							OFFSET 0.00000 -0.00000 1.04844
						}
					}
				}
			}
		}
	}
	JOINT RHipJoint
	{
		OFFSET 0 0 0
		CHANNELS 3 Zrotation Yrotation Xrotation
		JOINT RightUpLeg
		{
			OFFSET -1.54669 -1.61379 0.86856
			CHANNELS 3 Zrotation Yrotation Xrotation
			JOINT RightLeg
			{
				OFFSET -2.28132 -6.26789 0.00000
				CHANNELS 3 Zrotation Yrotation Xrotation
				JOINT RightFoot
				{
					OFFSET -2.51636 -6.91365 0.00000
					CHANNELS 3 Zrotation Yrotation Xrotation
					JOINT RightToeBase
					{
						OFFSET -0.15124 -0.41552 2.21090
						CHANNELS 3 Zrotation Yrotation Xrotation
						End Site
						{
							OFFSET -0.00000 -0.00000 1.13399
						}
					}
				}
			}
		}
	}
	JOINT LowerBack
	{
		OFFSET 0 0 0
		CHANNELS 3 Zrotation Yrotation Xrotation
		JOINT Spine
		{
			OFFSET -0.04287 2.26161 -0.25690
			CHANNELS 3 Zrotation Yrotation Xrotation
			JOINT Spine1
			{
				OFFSET 0.02248 2.28395 -0.10140
				CHANNELS 3 Zrotation Yrotation Xrotation
				JOINT Neck
				{
					OFFSET 0 0 0
					CHANNELS 3 Zrotation Yrotation Xrotation
					JOINT Neck1
					{
						OFFSET -0.11644 1.38496 0.11345
						CHANNELS 3 Zrotation Yrotation Xrotation
						JOINT Head
						{
							OFFSET 0.29383 1.36600 0.06642
							CHANNELS 3 Zrotation Yrotation Xrotation
							End Site
							{
								OFFSET 0.11075 1.41395 -0.00294
							}
						}
					}
				}
				JOINT LeftShoulder
				{
					OFFSET 0 0 0
					CHANNELS 3 Zrotation Yrotation Xrotation
					JOINT LeftArm
					{
						OFFSET 3.51628 0.59542 -0.30346
						CHANNELS 3 Zrotation Yrotation Xrotation
						JOINT LeftForeArm
						{
							OFFSET 4.76405 -0.00000 0.00000
							CHANNELS 3 Zrotation Yrotation Xrotation
							JOINT LeftHand
							{
								OFFSET 3.13759 -0.00000 -0.00000
								CHANNELS 3 Zrotation Yrotation Xrotation
								JOINT LeftFingerBase
								{
									OFFSET 0 0 0
									CHANNELS 3 Zrotation Yrotation Xrotation
									JOINT LeftHandIndex1
									{
										OFFSET 0.73226 -0.00000 -0.00000
										CHANNELS 3 Zrotation Yrotation Xrotation
										End Site
										{
											OFFSET 0.59037 -0.00000 -0.00000
										}
									}
								}
								JOINT LThumb
								{
									OFFSET 0 0 0
									CHANNELS 3 Zrotation Yrotation Xrotation
									End Site
									{
										OFFSET 0.59938 -0.00000 0.59938
									}
								}
							}
						}
					}
				}
				JOINT RightShoulder
				{
					OFFSET 0 0 0
					CHANNELS 3 Zrotation Yrotation Xrotation
					JOINT RightArm
					{
						OFFSET -3.30990 0.84213 -0.36430
						CHANNELS 3 Zrotation Yrotation Xrotation
						JOINT RightForeArm
						{
							OFFSET -5.10161 -0.00000 -0.00000
							CHANNELS 3 Zrotation Yrotation Xrotation
							JOINT RightHand
							{
								OFFSET -3.23267 -0.00000 -0.00000
								CHANNELS 3 Zrotation Yrotation Xrotation
								JOINT RightFingerBase
								{
									OFFSET 0 0 0
									CHANNELS 3 Zrotation Yrotation Xrotation
									JOINT RightHandIndex1
									{
										OFFSET -0.70200 -0.00000 -0.00000
										CHANNELS 3 Zrotation Yrotation Xrotation
										End Site
										{
											OFFSET -0.56597 -0.00000 -0.00000
										}
									}
								}
								JOINT RThumb
								{
									OFFSET 0 0 0
									CHANNELS 3 Zrotation Yrotation Xrotation
									End Site
									{
										OFFSET -0.57461 -0.00000 0.57461
									}
								}
							}
						}
					}
				}
			}
		}
	}
}
MOTION
Frames: 15
Frame Time: .0083333
-34.4817 14.8144 15.33 0 0 0 0 0 0 -21 0 0 0 0 0 0 0 0 0 0 0 0 0 0 21 0 0 0 0 0 0 0 0 0 0 0 0 0 0 0 0 0 0 0 0 0 0 -16 0 0 21 0 0 11 0 0 0 -8 0 0 0 0 0 0 0 0 0 0 0 0 0 0 0 0 0 0 0 0 8 0 0 0 0 0 0 0 0 0 0 0 0 0 0 0 0 0
-34.4817 14.8144 15.3300 170.9890 43.8067 179.2080 0.0000 0.0000 0.0000 -16.1383 9.0036 -13.8904 4.7768 13.1279 39.8493 -0.2700 16.7275 -20.9830 9.6023 17.1801 58.1508 0.0000 0.0000 0.0000 7.7078 -18.1125 -34.4407 -13.5865 -18.9838 70.9376 -1.3393 -11.2099 -28.4968 -0.0292 -1.1025 3.0308 -11.6875 4.8552 9.6934 -5.5835 6.4862 6.4798 0.0470 3.3925 0.9323 -16.6087 -10.9707 -7.1347 25.5800 -10.8685 -15.0172 10.4730 -4.6845 -0.4082 -0.0000 0.0000 0.0000 -84.2021 9.1701 31.0233 113.2132 -57.8627 -79.9589 -0.0000 -0.0000 169.0960 5.1020 18.7793 1.6464 -7.1250 0.0000 -0.0000 -22.0049 47.5467 -1.4497 -0.0000 0.0000 0.0000 95.8673 3.1805 69.8141 -61.7663 56.7625 -35.8146 0.0000 -0.0000 -34.7786 -23.3341 25.3538 -10.4655 7.1250 -0.0000 -0.0000 3.8196 -2.7363 3.6411
-34.3675 14.7958 15.3146 170.8230 43.9439 178.8930 0.0000 0.0000 0.0000 -15.8610 9.6385 -13.1904 4.7216 13.0633 39.6059 -0.2072 16.5774 -21.4297 9.6151 17.1877 58.1942 0.0000 0.0000 0.0000 6.5062 -17.7489 -35.0288 -13.6635 -19.0088 71.1741 -1.5049 -10.3005 -28.9200 -0.0948 -1.9857 5.4661 -11.8326 4.7108 10.0210 -5.6688 6.2884 6.6594 0.0371 3.3020 0.9663 -16.1313 -10.5994 -7.2721 25.2183 -10.4697 -14.5469 10.2866 -4.5030 -0.4025 0.0000 0.0000 0.0000 -84.8294 8.6066 31.4600 111.4099 -58.1951 -78.4291 -0.0000 -0.0000 169.5060 5.7380 17.5076 1.7314 -7.1250 0.0000 -0.0000 -20.8986 46.4461 -0.7794 0.0000 0.0000 0.0000 96.6905 2.7508 67.6470 -60.2028 56.3637 -34.5099 0.0000 -0.0000 -34.3653 -23.4914 26.0292 -10.7983 7.1250 -0.0000 -0.0000 3.8076 -1.9987 3.6807
-34.2495 14.7738 15.2908 170.6570 44.2637 178.6130 0.0000 0.0000 0.0000 -15.6475 10.2746 -12.3989 4.6215 12.9444 39.1607 -0.2190 16.7817 -21.6235 9.6419 17.2035 58.2847 0.0000 0.0000 0.0000 5.3008 -17.2979 -35.6605 -13.7443 -19.0347 71.4221 -1.5917 -9.8439 -29.1660 -0.0904 -1.9388 5.3366 -12.2618 4.5233 10.2143 -5.4861 5.9804 6.7613 0.4792 3.1292 0.9459 -16.1779 -10.0391 -7.5369 24.7492 -9.8525 -13.7660 10.1624 -4.1908 -0.3091 0.0000 -0.0000 0.0000 -86.1415 8.1920 31.5924 109.2558 -58.5516 -76.5949 -0.0000 -0.0000 169.5420 6.8763 16.7591 1.9915 -7.1250 0.0000 -0.0000 -19.5890 45.8852 -0.4451 0.0000 -0.0000 0.0000 96.7902 2.0923 66.1016 -59.3689 56.1394 -33.8165 0.0000 -0.0000 -35.4035 -23.4880 26.1036 -10.8246 7.1250 -0.0000 -0.0000 3.8190 -1.9216 3.6971
-34.1323 14.7496 15.2584 170.4570 44.6348 178.3690 0.0000 0.0000 0.0000 -15.5453 10.7890 -11.6807 4.5228 12.8253 38.7181 -0.3376 17.4649 -21.4483 9.8038 17.2980 58.8304 0.0000 0.0000 0.0000 4.0356 -16.7673 -36.3794 -13.7731 -19.0438 71.5103 -1.5999 -9.6117 -29.0535 -0.0596 -1.5758 4.3348 -12.5158 4.3061 10.3197 -5.4125 5.6542 6.8008 0.7230 2.9556 0.9377 -15.8974 -9.5376 -7.8953 24.1952 -9.3764 -12.7284 9.9243 -3.9575 -0.1226 -0.0000 -0.0000 0.0000 -87.2860 7.7386 32.4727 107.0501 -58.8726 -74.7099 -0.0000 -0.0000 171.4750 5.8169 15.7489 1.5839 -7.1250 0.0000 -0.0000 -20.1481 44.8067 0.1003 -0.0000 -0.0000 0.0000 96.7968 1.2515 64.6226 -59.2248 56.0998 -33.6968 0.0000 -0.0000 -36.6812 -23.7318 26.2886 -11.0182 7.1250 -0.0000 -0.0000 3.6959 -1.6796 3.5936
-34.0194 14.7124 15.2239 170.1220 44.9681 178.0400 0.0000 0.0000 0.0000 -15.5608 11.2910 -11.0364 4.4302 12.7119 38.2994 -0.4929 18.2310 -21.0404 10.0655 17.4465 59.7069 0.0000 0.0000 0.0000 2.6517 -16.4594 -37.1431 -13.8237 -19.0597 71.6654 -1.6795 -8.7745 -29.0030 -0.0780 -1.8011 4.9563 -12.6047 4.0462 10.3568 -5.5150 5.3183 6.8595 0.7040 2.7885 1.0212 -15.4397 -9.0135 -8.2313 23.7072 -8.8657 -11.7001 9.6842 -3.7109 0.0532 0.0000 -0.0000 0.0000 -88.0614 7.2824 33.6674 105.0598 -59.1255 -73.0038 -0.0000 -0.0000 173.0760 4.7337 14.6200 1.1974 -7.1250 0.0000 -0.0000 -20.6835 43.6261 0.7347 0.0000 -0.0000 0.0000 97.0531 0.4368 62.0958 -59.7664 56.2474 -34.1468 0.0000 -0.0000 -36.3856 -25.8797 25.2477 -11.6910 7.1250 -0.0000 -0.0000 2.2633 -2.3374 2.1709
-33.8966 14.6833 15.1794 170.0720 45.3273 177.8610 0.0000 0.0000 0.0000 -15.3181 11.7824 -10.1703 4.3433 12.6037 37.9025 -0.5299 18.5535 -21.2035 10.0961 17.4635 59.8090 0.0000 0.0000 0.0000 1.3442 -15.7222 -38.0189 -13.6109 -18.9917 71.0125 -1.0304 -12.0509 -26.9999 -0.1427 2.4348 -6.7090 -12.4351 3.7610 10.3997 -5.5389 4.9556 6.9229 0.6314 2.6081 1.1136 -15.0764 -8.4038 -8.4638 23.3131 -8.2123 -10.7841 9.5142 -3.3945 0.1714 -0.0000 0.0000 0.0000 -88.7790 7.0159 35.1274 103.6605 -59.2830 -71.8018 -0.0000 -0.0000 174.4030 4.0648 12.8806 0.9076 -7.1250 0.0000 -0.0000 -20.6594 41.9285 1.6432 -0.0000 0.0000 0.0000 97.2720 -0.0330 57.2964 -58.1943 55.8093 -32.8430 0.0000 -0.0000 -26.2478 -25.5162 23.3489 -10.7124 7.1250 -0.0000 -0.0000 2.2382 -4.4331 2.0601
-33.7720 14.6472 15.1353 170.2050 45.8358 177.7610 0.0000 0.0000 0.0000 -14.8981 12.3359 -9.1598 4.2525 12.4890 37.4847 -0.4730 18.5794 -21.8785 9.8417 17.3199 58.9579 0.0000 0.0000 0.0000 0.1003 -14.9660 -38.5054 -13.4549 -18.9403 70.5325 -1.1555 -10.9927 -27.0083 -0.1227 2.2580 -6.2193 -12.2526 3.4929 10.4445 -5.4138 4.5901 6.9571 0.7055 2.4175 1.1570 -14.7722 -7.7209 -8.6853 22.7283 -7.4575 -9.9123 9.2998 -3.0280 0.2502 -0.0000 -0.0000 0.0000 -89.6475 6.7837 36.4439 101.8592 -59.4619 -70.2518 -0.0000 -0.0000 172.3570 4.2472 11.2928 0.8332 -7.1250 0.0000 -0.0000 -20.0004 40.4549 2.3491 -0.0000 -0.0000 0.0000 96.8311 -1.2514 55.9112 -60.3805 56.4105 -34.6578 0.0000 -0.0000 -28.5237 -31.9461 23.3640 -13.8898 7.1250 -0.0000 -0.0000 -1.7065 -3.0096 -1.6153
-33.6340 14.6009 15.0809 170.1600 46.7576 177.4660 0.0000 0.0000 0.0000 -14.5535 13.3904 -8.1823 4.1849 12.4025 37.1712 -0.4450 18.8049 -22.5635 9.6618 17.2152 58.3518 0.0000 0.0000 0.0000 -1.1060 -13.9826 -38.9517 -13.2135 -18.8579 69.7872 -0.9780 -11.6650 -26.2582 -0.3904 4.0122 -11.1110 -12.3171 3.2994 10.1703 -5.2342 4.3685 7.0786 0.9768 2.2756 1.4399 -14.5032 -7.0078 -9.1820 21.9101 -6.6480 -8.9449 9.0079 -2.6175 0.3853 -0.0000 0.0000 0.0000 -90.6420 6.3584 37.3554 99.9236 -59.6246 -68.5833 -0.0000 -0.0000 167.8680 5.4621 10.2781 0.9775 -7.1250 0.0000 -0.0000 -18.6864 39.5984 2.5933 -0.0000 0.0000 0.0000 96.1229 -2.5810 54.6873 -63.0172 57.0618 -36.8627 0.0000 -0.0000 -30.8696 -34.9310 24.4904 -16.1468 7.1250 -0.0000 -0.0000 -3.3033 -0.9646 -3.2527
-33.4728 14.5596 15.0085 170.0460 48.4058 176.9140 0.0000 0.0000 0.0000 -14.1546 15.2941 -6.9644 4.1290 12.3302 36.9101 -0.4770 19.3338 -23.1414 9.7198 17.2492 58.5476 0.0000 0.0000 0.0000 -2.3812 -12.3756 -39.2023 -13.0201 -18.7894 69.1881 -1.0773 -10.7640 -26.2312 -0.3826 3.9721 -10.9983 -12.2917 3.2896 9.7993 -5.2358 4.4047 7.1121 0.9835 2.2737 1.6743 -13.6610 -6.3165 -9.8986 20.7008 -6.0044 -7.4299 8.4594 -2.2968 0.7090 -0.0000 0.0000 0.0000 -91.1606 6.2782 38.3121 99.1907 -59.6784 -67.9508 -0.0000 -0.0000 168.6790 6.4307 9.4101 1.0557 -7.1250 0.0000 -0.0000 -17.6437 38.8470 2.7768 -0.0000 0.0000 0.0000 95.5556 -3.8935 53.7451 -65.4591 57.5973 -38.9184 0.0000 -0.0000 -33.1544 -37.7188 25.7680 -18.5839 7.1250 -0.0000 -0.0000 -4.6852 1.3212 -4.8080
-33.3411 14.5158 14.9728 170.5960 49.1445 177.3920 0.0000 0.0000 0.0000 -13.5461 15.7815 -6.3199 4.0924 12.2823 36.7383 -0.5131 19.7508 -23.4985 9.6638 17.2164 58.3587 0.0000 0.0000 0.0000 -2.9110 -11.4933 -40.0341 -12.8028 -18.7098 68.5119 -1.0060 -10.9690 -25.8593 -0.6184 5.0325 -14.0013 -11.8569 2.9365 9.6858 -5.0038 3.9047 6.9577 1.0450 2.0148 1.6126 -12.3989 -5.6747 -10.7166 18.6288 -5.5624 -5.4815 7.5458 -2.1032 1.1668 -0.0000 0.0000 0.0000 -91.7420 6.2631 39.3403 98.5700 -59.7207 -67.4149 -0.0000 -0.0000 171.6230 7.8490 9.6739 1.3270 -7.1250 0.0000 -0.0000 -16.5267 39.2104 2.4358 -0.0000 0.0000 0.0000 94.5609 -5.0001 53.2775 -67.9115 58.0737 -40.9945 0.0000 -0.0000 -35.9638 -40.4794 27.8086 -21.7103 7.1250 -0.0000 -0.0000 -5.7979 4.5993 -6.2753
-33.2134 14.4716 14.9302 171.0270 49.3165 177.6130 0.0000 0.0000 0.0000 -13.0663 15.7656 -5.3764 4.0376 12.2102 36.4798 -0.5414 20.0500 -23.7385 9.5139 17.1273 57.8509 0.0000 0.0000 0.0000 -3.6396 -11.2277 -40.4504 -12.5604 -18.6176 67.7545 -0.9828 -10.9141 -25.6313 -0.8319 5.8187 -16.2594 -11.3507 2.3911 9.8143 -4.7442 3.1640 6.9819 1.1096 1.6405 1.6364 -11.7861 -4.9478 -11.0755 17.4802 -4.7200 -4.8239 7.1122 -1.7059 1.2118 -0.0000 0.0000 0.0000 -92.5614 5.4769 40.7560 97.9628 -59.7591 -66.8904 -0.0000 -0.0000 172.9060 8.8701 8.6030 1.3373 -7.1250 0.0000 -0.0000 -15.4130 38.2480 2.6377 -0.0000 0.0000 0.0000 93.4555 -5.7077 51.7742 -69.8523 58.4092 -42.6448 0.0000 -0.0000 -33.9734 -39.9133 26.8755 -20.7143 7.1250 -0.0000 -0.0000 -5.6998 3.3268 -6.0503
-33.0727 14.4286 14.8724 170.3040 49.4268 176.6210 0.0000 0.0000 0.0000 -13.3747 16.0181 -4.1157 4.0058 12.1681 36.3293 -0.6207 20.6232 -23.9725 9.4225 17.0720 57.5401 0.0000 0.0000 0.0000 -5.5058 -11.0442 -40.4323 -12.2456 -18.4926 66.7653 -0.8445 -11.1547 -24.7383 -1.1133 6.7033 -18.8392 -11.4862 1.8637 10.1299 -4.7047 2.4298 7.1010 1.2843 1.2702 1.6630 -11.3585 -4.1345 -11.3907 16.5650 -3.7283 -4.2210 6.7980 -1.2300 1.2445 0.0000 -0.0000 0.0000 -93.5329 3.5206 42.9960 102.0060 -59.4483 -70.3782 -0.0000 -0.0000 175.2970 11.4874 -2.6379 -0.5359 -7.1250 0.0000 -0.0000 -11.5347 27.2339 5.0734 0.0000 -0.0000 0.0000 92.3710 -6.4053 50.3158 -72.1738 58.7646 -44.6261 0.0000 -0.0000 -32.0602 -39.2962 26.0629 -19.7766 7.1250 -0.0000 -0.0000 -5.5331 2.1792 -5.7661
-32.9247 14.3998 14.8087 169.5400 49.6568 175.7330 0.0000 0.0000 0.0000 -13.7186 16.4707 -3.0230 3.9777 12.1306 36.1957 -0.6788 21.1946 -24.4354 9.2295 16.9532 56.8806 0.0000 0.0000 0.0000 -7.1242 -10.9930 -40.6262 -11.9851 -18.3844 65.9417 -0.6825 -11.4973 -23.6956 -1.3873 7.4523 -21.0626 -11.5535 1.3613 10.2897 -4.7357 1.7358 7.1113 1.3491 0.9232 1.6602 -10.8781 -3.2698 -11.4202 15.6689 -2.6881 -3.7263 6.4842 -0.7459 1.2086 0.0000 -0.0000 0.0000 -93.7161 2.8343 46.4081 100.3870 -59.5884 -68.9829 -0.0000 -0.0000 175.8140 6.1968 -3.6960 -0.4010 -7.1250 0.0000 -0.0000 -15.3707 26.1918 7.2563 0.0000 -0.0000 0.0000 91.3266 -7.2216 49.4178 -75.0934 59.1435 -47.1276 0.0000 -0.0000 -31.9050 -39.5016 26.5788 -20.2466 7.1250 -0.0000 -0.0000 -5.5335 2.8423 -5.8278
-32.7796 14.3555 14.7514 169.3960 50.0634 175.6620 0.0000 0.0000 0.0000 -13.6493 17.0499 -2.5464 4.0033 12.1648 36.3176 -0.7598 21.8713 -24.8994 9.0383 16.8323 56.2225 0.0000 0.0000 0.0000 -8.1868 -10.4702 -40.8493 -11.6364 -18.2327 64.8317 -0.6652 -10.9776 -23.0396 -1.1526 6.8165 -19.1727 -11.2711 0.8788 10.1477 -4.5442 1.0859 7.0139 1.4581 0.5873 1.6910 -10.4817 -2.4168 -11.3972 14.6584 -1.6494 -3.3245 6.1454 -0.2685 1.1516 -0.0000 -0.0000 0.0000 -93.8386 2.3971 50.5225 98.4412 -59.7290 -67.3036 -0.0000 -0.0000 179.0570 -2.7563 -3.8561 0.1855 -7.1250 0.0000 -0.0000 -21.8284 25.9357 10.8449 -0.0000 -0.0000 0.0000 90.1442 -7.8120 47.9860 -78.1896 59.4663 -49.7902 0.0000 -0.0000 -29.4815 -38.9567 25.7449 -19.3512 7.1250 -0.0000 -0.0000 -5.4083 1.6991 -5.5910
